<?xml version="1.0" standalone="no"?>
<!DOCTYPE svg PUBLIC "-//W3C//DTD SVG 20010904//EN"
 "http://www.w3.org/TR/2001/REC-SVG-20010904/DTD/svg10.dtd">
<svg version="1.0" xmlns="http://www.w3.org/2000/svg"
 width="512.000000pt" height="512.000000pt" viewBox="0 0 512.000000 512.000000"
 preserveAspectRatio="xMidYMid meet">
<metadata>
Created by potrace 1.14, written by Peter Selinger 2001-2017
</metadata>
<g transform="translate(0.000000,512.000000) scale(0.100000,-0.100000)"
fill="#000000" stroke="none">
<path d="M3440 4720 l0 -160 160 0 160 0 -475 -475 c-261 -261 -479 -475 -485
-475 -6 0 -188 178 -405 395 l-395 395 -595 -595 c-327 -327 -595 -600 -595
-605 0 -6 52 -62 115 -125 l115 -115 480 480 480 480 400 -400 400 -400 600
600 600 600 0 -160 0 -160 160 0 160 0 0 440 0 440 -440 0 -440 0 0 -160z"/>
<path d="M4000 3040 l0 -640 160 0 160 0 0 640 0 640 -160 0 -160 0 0 -640z"/>
<path d="M1600 2400 l0 -640 160 0 160 0 0 640 0 640 -160 0 -160 0 0 -640z"/>
<path d="M3200 2720 l0 -320 160 0 160 0 0 320 0 320 -160 0 -160 0 0 -320z"/>
<path d="M2400 2600 l0 -200 160 0 160 0 0 200 0 200 -160 0 -160 0 0 -200z"/>
<path d="M800 2040 l0 -600 160 160 160 160 0 440 0 440 -160 0 -160 0 0 -600z"/>
<path d="M2640 1840 l0 -320 160 0 160 0 0 -320 0 -320 -160 0 -160 0 0 160 0
160 -280 0 -280 0 0 160 0 160 -440 0 -440 0 0 -160 0 -160 -480 0 -480 0 0
-160 0 -160 80 0 80 0 0 -160 0 -160 -80 0 -80 0 0 -160 0 -160 2120 0 2120 0
0 320 0 320 160 0 160 0 0 320 0 320 -160 0 -160 0 0 320 0 320 -920 0 -920 0
0 -320z"/>
</g>
</svg>
